<svg width="14" height="14" viewBox="0 0 14 14" fill="none" xmlns="http://www.w3.org/2000/svg">
<g clip-path="url(#clip0_602_55)">
<path d="M0.031583 2.2069C0.0321432 2.015 0.0951746 1.85526 0.220677 1.72769C0.34618 1.60012 0.502778 1.53661 0.690472 1.53716L3.22434 1.54456C3.37032 1.54498 3.49802 1.59333 3.60744 1.6896C3.71644 1.78587 3.78636 1.90868 3.81721 2.05803L4.24872 4.26619C4.26914 4.41551 4.25576 4.5675 4.2086 4.72217C4.16101 4.87641 4.09016 5.00137 3.99603 5.09704L2.52138 6.59599C2.99867 7.40765 3.5648 8.15026 4.21977 8.82384C4.87474 9.49742 5.57696 10.0592 6.32642 10.5092L7.86374 8.97841C7.95786 8.88273 8.06503 8.82163 8.18523 8.79512C8.30502 8.76903 8.43787 8.76686 8.58379 8.7886L10.7723 9.21079C10.9183 9.23253 11.038 9.30218 11.1315 9.41973C11.225 9.53728 11.2715 9.67068 11.2711 9.81994L11.2635 12.4106C11.263 12.6025 11.1999 12.7623 11.0744 12.8898C10.9489 13.0174 10.7923 13.0809 10.6046 13.0804C9.25949 13.0764 7.94924 12.766 6.67388 12.149C5.3981 11.5325 4.26909 10.7189 3.28685 9.70836C2.30419 8.6982 1.51508 7.53936 0.919521 6.23181C0.323548 4.92384 0.0275686 3.58221 0.031583 2.2069Z" fill="white"/>
</g>
<defs>
<clipPath id="clip0_602_55">
<rect width="13.0495" height="12.9942" fill="white" transform="translate(13.0322 0.0379639) rotate(90.1672)"/>
</clipPath>
</defs>
</svg>
