<svg width="22" height="22" viewBox="0 0 22 22" fill="none" xmlns="http://www.w3.org/2000/svg">
<g clip-path="url(#clip0_618_102)">
<path fill-rule="evenodd" clip-rule="evenodd" d="M6.84288 0.977248C7.91813 0.927748 8.26096 0.916748 11 0.916748C13.739 0.916748 14.0818 0.928665 15.1561 0.977248C16.2305 1.02583 16.9638 1.19725 17.6055 1.44566C18.2774 1.69958 18.887 2.0965 19.3911 2.60983C19.9045 3.11308 20.3005 3.72175 20.5535 4.39458C20.8028 5.03625 20.9733 5.76958 21.0228 6.84208C21.0723 7.91916 21.0833 8.262 21.0833 11.0001C21.0833 13.7391 21.0714 14.0819 21.0228 15.1572C20.9742 16.2297 20.8028 16.963 20.5535 17.6047C20.3005 18.2776 19.9038 18.8873 19.3911 19.3912C18.887 19.9046 18.2774 20.3006 17.6055 20.5536C16.9638 20.8029 16.2305 20.9734 15.158 21.0229C14.0818 21.0724 13.739 21.0834 11 21.0834C8.26096 21.0834 7.91813 21.0715 6.84288 21.0229C5.77038 20.9743 5.03704 20.8029 4.39538 20.5536C3.72247 20.3005 3.11279 19.9039 2.60879 19.3912C2.09581 18.8877 1.69883 18.2783 1.44554 17.6056C1.19713 16.9639 1.02663 16.2306 0.977126 15.1581C0.927626 14.081 0.916626 13.7382 0.916626 11.0001C0.916626 8.26108 0.928543 7.91825 0.977126 6.84391C1.02571 5.76958 1.19713 5.03625 1.44554 4.39458C1.69921 3.72182 2.09648 3.11245 2.60971 2.60891C3.113 2.09604 3.72206 1.69907 4.39446 1.44566C5.03613 1.19725 5.76946 1.02675 6.84196 0.977248H6.84288ZM15.0745 2.79225C14.0112 2.74366 13.6922 2.73358 11 2.73358C8.30771 2.73358 7.98871 2.74366 6.92538 2.79225C5.94179 2.83716 5.40829 3.00125 5.05263 3.13966C4.58238 3.323 4.24596 3.54025 3.89304 3.89316C3.5585 4.21863 3.30104 4.61484 3.13954 5.05275C3.00113 5.40841 2.83704 5.94191 2.79213 6.9255C2.74354 7.98883 2.73346 8.30783 2.73346 11.0001C2.73346 13.6923 2.74354 14.0113 2.79213 15.0747C2.83704 16.0582 3.00113 16.5917 3.13954 16.9474C3.30088 17.3847 3.55846 17.7816 3.89304 18.107C4.21846 18.4416 4.61538 18.6992 5.05263 18.8605C5.40829 18.9989 5.94179 19.163 6.92538 19.2079C7.98871 19.2565 8.30679 19.2666 11 19.2666C13.6931 19.2666 14.0112 19.2565 15.0745 19.2079C16.0581 19.163 16.5916 18.9989 16.9473 18.8605C17.4175 18.6772 17.754 18.4599 18.1069 18.107C18.4415 17.7816 18.699 17.3847 18.8604 16.9474C18.9988 16.5917 19.1629 16.0582 19.2078 15.0747C19.2564 14.0113 19.2665 13.6923 19.2665 11.0001C19.2665 8.30783 19.2564 7.98883 19.2078 6.9255C19.1629 5.94191 18.9988 5.40841 18.8604 5.05275C18.677 4.5825 18.4598 4.24608 18.1069 3.89316C17.7814 3.55865 17.3852 3.30119 16.9473 3.13966C16.5916 3.00125 16.0581 2.83716 15.0745 2.79225ZM9.71204 14.1085C10.4313 14.4079 11.2322 14.4483 11.978 14.2228C12.7237 13.9973 13.3681 13.5199 13.8009 12.8721C14.2338 12.2244 14.4283 11.4464 14.3513 10.6711C14.2743 9.89581 13.9305 9.17131 13.3787 8.62133C13.0269 8.26977 12.6016 8.00058 12.1333 7.83313C11.665 7.66569 11.1654 7.60416 10.6704 7.65298C10.1755 7.7018 9.69752 7.85974 9.27095 8.11545C8.84438 8.37116 8.47981 8.71826 8.20349 9.13178C7.92717 9.54529 7.74597 10.0149 7.67293 10.5069C7.5999 10.9988 7.63685 11.5008 7.78112 11.9768C7.92539 12.4528 8.1734 12.8908 8.50729 13.2594C8.84117 13.628 9.25263 13.918 9.71204 14.1085ZM7.33513 7.33525C7.8164 6.85397 8.38775 6.47221 9.01657 6.21175C9.64538 5.95128 10.3193 5.81722 11 5.81722C11.6806 5.81722 12.3545 5.95128 12.9834 6.21175C13.6122 6.47221 14.1835 6.85397 14.6648 7.33525C15.1461 7.81652 15.5278 8.38787 15.7883 9.01669C16.0488 9.6455 16.1828 10.3195 16.1828 11.0001C16.1828 11.6807 16.0488 12.3547 15.7883 12.9835C15.5278 13.6123 15.1461 14.1836 14.6648 14.6649C13.6928 15.6369 12.3745 16.1829 11 16.1829C9.62538 16.1829 8.3071 15.6369 7.33513 14.6649C6.36315 13.6929 5.8171 12.3747 5.8171 11.0001C5.8171 9.6255 6.36315 8.30722 7.33513 7.33525ZM17.3323 6.58908C17.4516 6.47658 17.547 6.34129 17.6131 6.19122C17.6791 6.04116 17.7144 5.87937 17.7168 5.71543C17.7191 5.5515 17.6886 5.38875 17.627 5.23682C17.5653 5.0849 17.4739 4.94688 17.3579 4.83095C17.242 4.71502 17.104 4.62353 16.952 4.56189C16.8001 4.50025 16.6374 4.46973 16.4734 4.47212C16.3095 4.47451 16.1477 4.50976 15.9976 4.5758C15.8476 4.64184 15.7123 4.73732 15.5998 4.85658C15.381 5.08852 15.2612 5.39661 15.2659 5.71543C15.2705 6.03426 15.3992 6.33872 15.6247 6.56419C15.8502 6.78965 16.1546 6.91837 16.4734 6.92302C16.7923 6.92767 17.1003 6.80788 17.3323 6.58908Z" fill="white"/>
</g>
<defs>
<clipPath id="clip0_618_102">
<rect width="22" height="22" fill="white"/>
</clipPath>
</defs>
</svg>
