<svg width="24" height="18" viewBox="0 0 24 18" fill="none" xmlns="http://www.w3.org/2000/svg">
<path d="M23.375 8.92881C23.375 8.87295 23.375 8.80947 23.3725 8.73584C23.3699 8.53018 23.3648 8.29912 23.3598 8.05283C23.3395 7.34443 23.3039 6.63857 23.248 5.97334C23.1719 5.05674 23.0602 4.29248 22.9078 3.71865C22.747 3.11981 22.4319 2.57366 21.9939 2.13478C21.5559 1.69589 21.0104 1.37966 20.4119 1.21768C19.6934 1.02471 18.2867 0.905371 16.3062 0.831738C15.3643 0.796191 14.3562 0.77334 13.3482 0.760644C12.9953 0.755566 12.6678 0.753027 12.3732 0.750488H11.6268C11.3322 0.753027 11.0047 0.755566 10.6518 0.760644C9.64375 0.77334 8.63574 0.796191 7.69375 0.831738C5.71328 0.90791 4.3041 1.02725 3.58809 1.21768C2.98938 1.37926 2.44365 1.69536 2.0056 2.13431C1.56755 2.57325 1.25255 3.11962 1.09219 3.71865C0.937305 4.29248 0.828125 5.05674 0.751953 5.97334C0.696094 6.63857 0.660547 7.34443 0.640234 8.05283C0.632617 8.29912 0.630078 8.53018 0.627539 8.73584C0.627539 8.80947 0.625 8.87295 0.625 8.92881V9.071C0.625 9.12686 0.625 9.19033 0.627539 9.26397C0.630078 9.46963 0.635156 9.70068 0.640234 9.94697C0.660547 10.6554 0.696094 11.3612 0.751953 12.0265C0.828125 12.9431 0.939844 13.7073 1.09219 14.2812C1.41719 15.4974 2.37187 16.4571 3.58809 16.7821C4.3041 16.9751 5.71328 17.0944 7.69375 17.1681C8.63574 17.2036 9.64375 17.2265 10.6518 17.2392C11.0047 17.2442 11.3322 17.2468 11.6268 17.2493H12.3732C12.6678 17.2468 12.9953 17.2442 13.3482 17.2392C14.3562 17.2265 15.3643 17.2036 16.3062 17.1681C18.2867 17.0919 19.6959 16.9726 20.4119 16.7821C21.6281 16.4571 22.5828 15.4999 22.9078 14.2812C23.0627 13.7073 23.1719 12.9431 23.248 12.0265C23.3039 11.3612 23.3395 10.6554 23.3598 9.94697C23.3674 9.70068 23.3699 9.46963 23.3725 9.26397C23.3725 9.19033 23.375 9.12686 23.375 9.071V8.92881ZM21.5469 9.06084C21.5469 9.11416 21.5469 9.17256 21.5443 9.24111C21.5418 9.43916 21.5367 9.65752 21.5316 9.89365C21.5139 10.569 21.4783 11.2444 21.425 11.8716C21.3564 12.6892 21.26 13.3595 21.1406 13.8089C20.9832 14.3954 20.5211 14.8601 19.9371 15.0149C19.4039 15.1571 18.0607 15.2714 16.2352 15.3399C15.3109 15.3755 14.3156 15.3983 13.3229 15.411C12.975 15.4161 12.6525 15.4187 12.3631 15.4187H11.6369L10.6771 15.411C9.68437 15.3983 8.6916 15.3755 7.76484 15.3399C5.93926 15.2688 4.59355 15.1571 4.06289 15.0149C3.47891 14.8575 3.0168 14.3954 2.85938 13.8089C2.74004 13.3595 2.64355 12.6892 2.575 11.8716C2.52168 11.2444 2.48867 10.569 2.46836 9.89365C2.46074 9.65752 2.4582 9.43662 2.45566 9.24111C2.45566 9.17256 2.45312 9.11162 2.45312 9.06084V8.93897C2.45312 8.88565 2.45313 8.82725 2.45566 8.75869C2.4582 8.56064 2.46328 8.34229 2.46836 8.10615C2.48613 7.43076 2.52168 6.75537 2.575 6.12822C2.64355 5.31064 2.74004 4.64033 2.85938 4.19092C3.0168 3.60439 3.47891 3.13975 4.06289 2.98486C4.59609 2.84268 5.93926 2.72842 7.76484 2.65986C8.68906 2.62432 9.68437 2.60146 10.6771 2.58877C11.025 2.58369 11.3475 2.58115 11.6369 2.58115H12.3631L13.3229 2.58877C14.3156 2.60146 15.3084 2.62432 16.2352 2.65986C18.0607 2.73096 19.4064 2.84268 19.9371 2.98486C20.5211 3.14229 20.9832 3.60439 21.1406 4.19092C21.26 4.64033 21.3564 5.31064 21.425 6.12822C21.4783 6.75537 21.5113 7.43076 21.5316 8.10615C21.5393 8.34229 21.5418 8.56318 21.5443 8.75869C21.5443 8.82725 21.5469 8.88818 21.5469 8.93897V9.06084ZM9.74023 12.4022L15.6309 8.97451L9.74023 5.59756V12.4022Z" fill="white"/>
</svg>
